<svg viewBox="0 0 60 60" xmlns="http://www.w3.org/2000/svg"><circle cx="30" cy="30" r="30" fill="#363b43" class="fill-ffd301"></circle><path d="M57.044 43a30 30 0 1 0-54.089 0Z" fill="#438cef" class="fill-ff4867"></path><rect height="31" rx="4" ry="4" width="48" x="6" y="19" fill="#4f5564" class="fill-4f5564"></rect><rect height="32" rx="2" ry="2" transform="rotate(90 25 34.5)" width="25" x="12.5" y="18.5" fill="#25cec6" class="fill-25cec6"></rect><rect height="28" rx="1" ry="1" transform="rotate(90 25 34.5)" width="21" x="14.5" y="20.5" fill="#8de1de" class="fill-8de1de"></rect><path d="M29.788 19a5.495 5.495 0 0 0-10.576 0Z" fill="#454a57" class="fill-454a57"></path><circle cx="15" cy="1" r="1" fill="#454a57" class="fill-454a57"></circle><circle cx="34" cy="1" r="1" fill="#454a57" class="fill-454a57"></circle><path d="M25 17 15 1M24 17 34 1" stroke="#454a57" fill="none" stroke-miterlimit="10" class="stroke-454a57"></path><path d="M44 23h7M44 25h7M44 27h7" stroke="#404551" stroke-linecap="round" stroke-width=".93541px" fill="none" stroke-miterlimit="10" class="stroke-404551"></path><circle cx="47.5" cy="35.5" r="1.5" fill="#f2572d" class="fill-f2572d"></circle><circle cx="47.5" cy="40.5" r="1.5" fill="#a0e48d" class="fill-a0e48d"></circle></svg>