<svg viewBox="0 0 100 100" xml:space="preserve" xmlns="http://www.w3.org/2000/svg" enable-background="new 0 0 100 100"><path d="M88.7 38c-.5-.8-1-1.6-1.6-2.4-1.7-3.2-3.7-6.2-6-9-5.3-6.6-10.8-13.1-17.8-18-.7-.5-1.5-.8-2.3-.9-5.7-4.1-13.5-8-18.9-2.6-1.1 1.1-1.8 2.5-2.2 4-4.1 4.9-2 12.3.2 17.9l.6 1.5c-.5.6-.9 1.2-1.1 2-1.4 4.4-3.6 8.4-6.5 11.9-2.8 3.3-6.2 5.4-7.5 9.6-.1.2-.1.4-.1.6-6.8 4-.6 12.9 3 17.2 2.2 2.6 5.2 5.2 8.7 5.7 3.8.6 5.3-1.5 7.5-4 5.5-6.2 14.4-7.3 22.1-8.4.5-.1 1-.2 1.4-.4 1.5.4 3 .5 4.5.2 4 1.2 8.1 1.9 11.7 1.1 1.6-.3 3.1-1.1 4.2-2.2 2.2-.1 4-1.6 4.5-3.7 2.3-7.4-.5-14.1-4.4-20.1z" fill="#efe7d2" class="fill-efe7d2"></path><path d="M42.2 75.6c-.2 0-.4.1-.6.1h-2c-1 0-2 .4-2.8.9-.2 0-.4-.1-.6-.1-.8-1.9-2.2-3.5-4-4.5-2.1-1.2-5.5-1.8-6.9-3.9-.2-.6-.5-1.3-.8-1.8-.1-.2-.2-.4-.3-.7-.3-.6-.6-1.2-1.1-1.7.2-3.6-3.7-7.4-7.9-5.2-5.7 3-8.7 10.7-8.3 16.9.4 6.9 6.6 12.4 12.9 13.4 3.4.6 8.6-.7 12.4-3.2.7.6 1.4.9 2.3 1.1 3 .6 6 1.7 8.6 3.2 2.4 1.4 4.3 3.7 7 4.8 3.5 1.4 8.3-.5 11.2-3.3 1.2-.2 2.1-1.1 2.5-2.2 4.7-12.2-13.4-15-21.6-13.8zM72.5 31.1c-2.3-3.2-6.9-5.7-10.6-3.8-.4-.1-.9-.1-1.3-.1-1.2 0-2.3.6-2.9 1.7-1.6 3.3 1.2 6.9 3.2 9.4 1.3 1.7 3.4 4.6 5.8 5.7.1.1.1.2.2.3 1.2 1.2 3.6 1.4 4.7 0 3-3.9 3.8-9.1.9-13.2z" fill="#438cef" class="fill-f15a22"></path><path d="M38.2 41.3C36.4 47.5 32.7 53 27.7 57c-1.9 1.5.8 4.2 2.7 2.7 5.5-4.5 9.5-10.5 11.5-17.4.7-2.3-3-3.4-3.7-1zM49.5 29.3c-1.5-2.3-2.8-4.7-4.1-7.1-1.1-2.2-4.4-.3-3.3 1.9 1.2 2.4 2.6 4.8 4.1 7.1 1.4 2.1 4.7.2 3.3-1.9zM87.2 49c-1.1-1.5-2.1-3.2-2.9-4.9-.5-.9-1.7-1.2-2.6-.7-.9.5-1.2 1.7-.7 2.6.8 1.7 1.8 3.3 2.9 4.9.5.9 1.7 1.2 2.6.7 1-.6 1.3-1.7.7-2.6zM15.7 65.4c-3.4 3.1-5.4 7.6-3.9 12.2.8 2.3 4.5 1.3 3.7-1-1.1-3.4.4-6.3 2.9-8.5 1.8-1.6-.9-4.3-2.7-2.7z" fill="#ffffff" class="fill-ffffff"></path><path d="M36.9 83.4c-.2.2-.4.4-.5.6 6.1 2.2 11.7 5.6 16.4 10 .2.2.4.4.7.6.1.1.2.1.3.1.1 0 .1 0 .2-.1.2-.1.4-.2.5-.3 1.9-1.1 3.8-2.2 5.6-3.5.6-.4 1.1-.8 1.5-1.2.4-.3.6-.8.8-1.2.1-.2.1-.4.1-.6 0-.7-.3-1.4-.8-2-.8-.9-1.8-1.6-2.8-2.1-4.9-2.7-10.4-4.1-16-4.1-1.1 0-2.1.1-3.2.2-.9 1.2-1.8 2.5-2.8 3.6zM24.6 63.1c1.1 2.2 2.6 4.2 4.3 6 1.2 1.2 2.4 2.3 3.7 3.2.7.5 1.4 1.1 2.4 1.6L23.5 60.5c.3.9.7 1.8 1.1 2.6z" fill="none"></path><path d="M72.6 64.6c1.2 0 2.4.1 3.5.3 2 .4 4 .7 6 .8 1.4 0 2.9-.2 4.3-.7 1.1-.4 2.1-.8 3.1-1.4 1.7-1 3.1-2.4 4.1-4.1.7-1.4 1.1-2.9 1.1-4.4-.1-2.1-.5-4.2-1.4-6.2-.8-2.1-1.9-4.1-3-6-5.1-8.7-13.3-18.5-21.6-26.2-3.9-3.7-8-6.9-12.4-9.7-1.8-1.1-3.7-2.1-5.7-2.8-1.6-.7-3.4-1-5.1-1.1-1.4 0-2.9.4-4.1 1.1-1 .7-1.9 1.7-2.5 2.8-.5.9-1 1.9-1.4 3-1 2.5-1.5 5.1-1.5 7.8 0 1.7.2 3.4.5 5.1.3 1.4.6 2.6.7 3.2.2.8.3 1.6.3 2.5 0 2.7-.8 6.2-3.5 10.7-2.5 4.3-6.6 9.5-12.9 15.7-.3 0-.5 0-.7.1-2.6 1.2-5.1 2.8-7.2 4.7-1.9 1.6-3.5 3.5-4.8 5.6-1.5 2.4-2.4 5.1-2.7 7.9 0 .4-.1 1.1-.1 2 0 1.5.2 3 .6 4.4.5 1.9 1.4 3.7 2.6 5.2 1.5 1.9 3.6 3.3 5.8 4.1 2.2.8 4.5 1.2 6.8 1.2 2.4 0 4.8-.4 7.1-1.1 2-.7 3.8-1.6 5.5-2.9 6.3 2 12.1 5.4 16.9 9.9.3.3.7.6 1.1.9.5.4 1.1.6 1.7.6h.1c.4 0 .9-.1 1.3-.3.3-.1.6-.3.9-.4 2-1.1 3.9-2.3 5.8-3.6.7-.5 1.4-1 2-1.6.7-.7 1.2-1.5 1.5-2.4.1-.4.2-.9.2-1.4 0-1.4-.5-2.7-1.4-3.8-1-1.2-2.3-2.2-3.7-2.9-5.3-2.9-11.3-4.4-17.4-4.4h-1.5c8.9-7.9 16.5-9.9 20-10.6 5-1 8.2-1.6 11.1-1.6zm-23-57.7c3.4 1.4 6.6 3.3 9.5 5.5 10.3 7.7 22.2 20.9 28.7 31.9 1.1 1.8 2 3.6 2.8 5.6.7 1.6 1.1 3.4 1.2 5.1 0 1.1-.2 2.1-.7 3.1-.2.3-.3.6-.5.8-.1 0-.3-.1-.4-.1-.2 0-.3 0-.5.1-.1 0-.2.1-.3.2-6-3.9-11.7-8.3-16.9-13.1.7-1.7 1.5-3.5 2.2-5.2.2-.5.4-1.1.4-1.6v-.3c-.1-.6-.3-1.1-.6-1.6-2.1-3.6-4.9-6.8-8.1-9.4-.3-.3-.7-.5-1.1-.8-.5-.3-1-.5-1.5-.6-.3-.1-.6-.1-.9-.1-.6 0-1.3.1-1.9.3l-4.6 1.1c-.1 0-.2.1-.3.1-5-6.6-9.3-13.7-12.9-21.2 0 0 .1 0 .1-.1.8-.5 1.6-.7 2.5-.7 1.1.1 2.5.4 3.8 1zm17.8 26c.6.6 1.2 1.3 1.7 1.9-.1 0-.1.1-.2.1-.2.1-.4.1-.6.2h-.1c-.2 0-.3-.2-.5-.3-.2-.2-.3-.5-.3-.8v-.4c-.1-.3-.1-.5 0-.7zm-1.9 3.6c.5.7 1.3 1.1 2.1 1.3.2 0 .5.1.7.1.6 0 1.2-.1 1.7-.4.3-.1.5-.2.8-.4.3.5.7 1 1 1.6.1.1.1.2.2.3v.2c0 .1-.1.3-.2.4L70 43.9c-4.4-4.2-8.5-8.7-12.3-13.5l3.7-.8c.4-.1.8-.2 1.3-.2h.3c.2 0 .4.1.6.2.3.2.5.3.8.5.2.2.5.4.7.6-.3.9-.5 1.9-.6 2.9 0 .3 0 .6.1.9.1.7.4 1.4.9 2zM40.1 11.1c.3-.6.5-1.2.8-1.8 10.6 21.2 26.7 39.2 46.6 52.1-.7.4-1.3.7-2 .9-1.1.4-2.2.6-3.3.6-1.8-.1-3.7-.4-5.5-.8-.7-.1-1.3-.2-2-.3-.1-.1-.3-.2-.4-.3C59.6 54 47.8 41.9 40.5 27.1c-.1-.1-.1-.2-.2-.3-.1-.5-.1-.9-.2-1.4-.2-.8-.5-1.8-.7-3.1-.3-1.5-.4-3-.5-4.5-.1-2.4.3-4.6 1.2-6.7zm-1.9 64.7c-1.1-.6-2.2-1.1-3.2-1.8-.9-.6-1.7-1.1-2.4-1.6-1.3-1-2.6-2.1-3.7-3.2-3.2-3.3-5.4-7.3-6.4-11.8 6.8-6.6 11.1-12.1 13.9-16.8 1.6-2.6 2.8-5.5 3.5-8.5 6.9 12.3 17 22.6 29.3 29.8-2.3.3-4.9.8-8.3 1.4-4.1.8-12.8 3.2-22.7 12.5zM8.4 73.5c.2-2.4 1-4.7 2.3-6.7 1.7-2.6 3.9-4.9 6.5-6.7.9-.6 1.7-1.2 2.7-1.7 1.2 4.8 3.6 9.2 7 12.7 3 3 6.4 5.5 10.2 7.3-.7 1.1-1.5 2.1-2.3 3-2 2.2-4.5 3.9-7.3 4.8-2 .7-4.1 1-6.2 1-2 0-3.9-.3-5.8-1-1.8-.7-3.4-1.8-4.6-3.3-1-1.2-1.7-2.6-2.1-4.1-.3-1.2-.5-2.5-.5-3.7 0-.7 0-1.3.1-1.6L7 73.3l1.4.2zm50.4 10.2c1.1.5 2 1.2 2.8 2.1.5.6.7 1.3.8 2 0 .2 0 .4-.1.6-.2.5-.4.9-.8 1.2-.5.5-1 .9-1.5 1.2-1.8 1.2-3.7 2.4-5.6 3.5-.2.1-.3.2-.5.3-.1 0-.1.1-.2.1s-.2-.1-.3-.1c-.2-.2-.5-.4-.7-.6-4.7-4.4-10.3-7.8-16.4-10 .2-.2.4-.4.5-.6 1-1.1 2-2.3 2.8-3.7 1.1-.1 2.1-.2 3.2-.2 5.6.1 11.1 1.5 16 4.2zM64.5 34.4z" fill="#000000" class="fill-000000"></path></svg>