<?xml version="1.0" ?><svg viewBox="0 0 24 24" xmlns="http://www.w3.org/2000/svg"><defs><style>.cls-1{fill:#f94060;}.cls-2{fill:#96ccee;}.cls-3{fill:#eae2f9;}</style></defs><g id="Rate"><path class="cls-1" d="M6.08,13.56A1.42,1.42,0,1,1,4.66,15a1.43,1.43,0,0,1,1.42-1.42"/><path class="cls-2" d="M10.56,7.15A1.42,1.42,0,1,1,9.14,8.57a1.43,1.43,0,0,1,1.42-1.42"/><path class="cls-1" d="M15.92,10.36a1.42,1.42,0,1,1-1.42,1.42,1.42,1.42,0,0,1,1.42-1.42"/><path class="cls-2" d="M20.23,4a1.42,1.42,0,1,1-1.42,1.42A1.42,1.42,0,0,1,20.23,4"/><rect class="cls-3" height="1.89" width="4.91" x="16" y="16.66"/><path d="M2.08,1.93a.5.5,0,0,0-.5.5V22a.5.5,0,0,0,.5.5H21.65a.5.5,0,0,0,0-1H2.58V2.43A.5.5,0,0,0,2.08,1.93Z"/><path d="M6.08,13.06a1.94,1.94,0,1,0,1.51.75l2.34-3.43a2.08,2.08,0,0,0,.63.11A1.92,1.92,0,0,0,12,9.86l2.08,1.48a2.12,2.12,0,0,0-.05.44,1.92,1.92,0,0,0,3.84,0,1.88,1.88,0,0,0-.43-1.19l2.23-3.41a1.9,1.9,0,1,0-.84-.54L16.61,10a2,2,0,0,0-.69-.13,1.93,1.93,0,0,0-1.39.59L12.44,9a2.45,2.45,0,0,0,0-.39A1.92,1.92,0,1,0,9.1,9.81L6.79,13.2A1.87,1.87,0,0,0,6.08,13.06ZM20.23,4.45a.92.92,0,1,1-.92.92A.92.92,0,0,1,20.23,4.45Zm-4.31,6.41a.92.92,0,1,1-.92.92A.92.92,0,0,1,15.92,10.86ZM10.56,7.65a.92.92,0,0,1,0,1.84.92.92,0,0,1,0-1.84ZM6.08,15.9A.92.92,0,1,1,7,15,.92.92,0,0,1,6.08,15.9Z"/><path d="M5.58,17.69v.67a.5.5,0,0,0,.5.5.51.51,0,0,0,.5-.5v-.67a.5.5,0,0,0-.5-.5A.5.5,0,0,0,5.58,17.69Z"/><path d="M11.06,5.82V5.15a.5.5,0,0,0-.5-.5.5.5,0,0,0-.5.5v.67a.5.5,0,0,0,.5.5A.5.5,0,0,0,11.06,5.82Z"/><path d="M15.92,15.64a.51.51,0,0,0,.5-.5v-.68a.51.51,0,0,0-.5-.5.5.5,0,0,0-.5.5v.68A.5.5,0,0,0,15.92,15.64Z"/><path d="M20.73,2.67V2a.5.5,0,0,0-.5-.5.5.5,0,0,0-.5.5v.67a.5.5,0,0,0,.5.5A.5.5,0,0,0,20.73,2.67Z"/><path d="M21.41,18.55V16.66a.5.5,0,0,0-.5-.5H16a.5.5,0,0,0-.5.5v1.89a.5.5,0,0,0,.5.5h4.91A.5.5,0,0,0,21.41,18.55Zm-1-.5H16.5v-.89h3.91Z"/><path d="M16,19.67a.51.51,0,0,0-.5.5.5.5,0,0,0,.5.5h2.91a.5.5,0,0,0,.5-.5.51.51,0,0,0-.5-.5Z"/></g></svg>